<svg width="24.000000" height="24.000000" viewBox="0 0 24 24" fill="none" xmlns="http://www.w3.org/2000/svg" xmlns:xlink="http://www.w3.org/1999/xlink">
    <desc>
        Created with Pixso.
    </desc>
    <defs/>
    <path id="orders" d="M22.57 4.63C23.05 4.85 24.01 5.67 23.99 7.16C23.98 8.64 23.99 14.65 23.99 17.47C23.94 17.99 23.53 19.17 22.28 19.69C21.04 20.21 15.59 22.63 13.03 23.77C12.72 23.94 11.85 24.18 10.87 23.77L1.71 19.69C1.14 19.32 -0.01 18.36 0 17.47C0 14.68 0.01 8.71 0 7.16C-0.02 5.6 0.89 4.82 1.35 4.63C4.29 3.26 10.33 0.46 11.01 0.16C11.68 -0.14 12.59 0.04 12.96 0.16L16.38 1.64L5.5 7C5.24 7.13 4.77 7.72 4.77 8.31L4.77 12.27L8.2 13.75L8.2 9.88C8.17 9.59 8.28 8.81 9 8.5C9.71 8.18 16.5 4.82 19.8 3.19L22.57 4.63ZM22.5 17.07L13.76 20.9C13.5 21 13.45 20.86 13.45 20.7L13.5 18.35C13.5 18.16 13.61 18.03 13.7 18C16.56 16.72 22.24 14.18 22.42 14.1C22.59 14.03 22.73 14.18 22.73 14.25L22.73 16.68C22.73 16.85 22.58 17.01 22.5 17.07Z" fill="#A4A4A4" fill-opacity="1.000000" fill-rule="evenodd"/>
</svg>
