<svg width="24.000006" height="22.698975" viewBox="0 0 24 22.699" fill="none" xmlns="http://www.w3.org/2000/svg" xmlns:xlink="http://www.w3.org/1999/xlink">
    <desc>
        Created with Pixso.
    </desc>
    <defs/>
    <path id="Vector"  d="M21 6.69L3.5 6.69L3.5 5.19L17.5 3.5L17.5 5.19L21 5.19L21 2.64C21 0.97 19.66 -0.21 18.03 0.03L2.97 2.21C1.33 2.45 0 4.02 0 5.69L5.72e-6 19.64C5.72e-6 20.45 0.31 21.23 0.87 21.8C1.44 22.37 2.2 22.69 3 22.69L21 22.69C21.79 22.69 22.55 22.37 23.12 21.8C23.68 21.23 24 20.45 24 19.64L24 9.74C24 8.94 23.68 8.16 23.12 7.59C22.55 7.02 21.79 6.69 21 6.69ZM18.74 16.98C18.45 16.98 18.16 16.92 17.88 16.81C17.61 16.69 17.36 16.52 17.15 16.31C16.94 16.1 16.78 15.85 16.66 15.57C16.55 15.29 16.49 14.99 16.49 14.69C16.49 14.39 16.55 14.09 16.67 13.82C16.78 13.54 16.94 13.29 17.15 13.07C17.36 12.86 17.61 12.69 17.88 12.58C18.16 12.46 18.45 12.4 18.75 12.4C19.34 12.41 19.91 12.65 20.34 13.08C20.76 13.5 21 14.09 21 14.69C20.99 15.3 20.76 15.88 20.34 16.31C19.91 16.74 19.34 16.98 18.74 16.98Z" fill="#A4A4A4" fill-opacity="1.000000" fill-rule="evenodd"/>
</svg>
